<svg width="5805pt" height="260pt" viewBox="0.00 0.00 5805.00 260.00" xmlns="http://www.w3.org/2000/svg" xmlns:xlink="http://www.w3.org/1999/xlink">
    <g id="graph1" class="graph" transform="scale(1 1) rotate(0) translate(4 256)">
        <title>_anonymous_0</title>
        <polygon fill="white" stroke="white" points="-4,5 -4,-256 5802,-256 5802,5 -4,5"></polygon>
        <!-- 0 -->
        <g id="node1" class="node"><title>0</title>
            <ellipse fill="none" stroke="black" cx="963" cy="-162" rx="97.9241" ry="18"></ellipse>
            <text text-anchor="middle" x="963" y="-157.8" font-family="Times,serif" font-size="14.00">"Eddard Stark (Male)"</text>
        </g>
        <!-- 4 -->
        <g id="node5" class="node"><title>4</title>
            <ellipse fill="none" stroke="black" cx="1349" cy="-90" rx="85.1347" ry="18"></ellipse>
            <text text-anchor="middle" x="1349" y="-85.8" font-family="Times,serif" font-size="14.00">"Jon Snow (Male)"</text>
        </g>
        <!-- 0&#45;&gt;4 -->
        <g id="edge4" class="edge"><title>0-&gt;4</title>
            <path fill="none" stroke="black" d="M1030.24,-148.807C1099.1,-136.318 1205.8,-116.968 1276.52,-104.144"></path>
            <polygon fill="black" stroke="black" points="1277.47,-107.53 1286.68,-102.301 1276.22,-100.642 1277.47,-107.53"></polygon>
        </g>
        <!-- 5 -->
        <g id="node6" class="node"><title>5</title>
            <ellipse fill="none" stroke="black" cx="933" cy="-90" rx="90.9828" ry="18"></ellipse>
            <text text-anchor="middle" x="933" y="-85.8" font-family="Times,serif" font-size="14.00">"Robb Stark (Male)"</text>
        </g>
        <!-- 0&#45;&gt;5 -->
        <g id="edge8" class="edge"><title>0-&gt;5</title>
            <path fill="none" stroke="black" d="M955.584,-143.697C952.206,-135.813 948.13,-126.304 944.377,-117.546"></path>
            <polygon fill="black" stroke="black" points="947.487,-115.917 940.33,-108.104 941.053,-118.675 947.487,-115.917"></polygon>
        </g>
        <!-- 6 -->
        <g id="node7" class="node"><title>6</title>
            <ellipse fill="none" stroke="black" cx="1144" cy="-90" rx="101.257" ry="18"></ellipse>
            <text text-anchor="middle" x="1144" y="-85.8" font-family="Times,serif" font-size="14.00">"Sansa Stark (Female)"</text>
        </g>
        <!-- 0&#45;&gt;6 -->
        <g id="edge12" class="edge"><title>0-&gt;6</title>
            <path fill="none" stroke="black" d="M1003.17,-145.465C1030.02,-135.079 1065.55,-121.34 1094.2,-110.26"></path>
            <polygon fill="black" stroke="black" points="1095.57,-113.484 1103.63,-106.613 1093.04,-106.955 1095.57,-113.484"></polygon>
        </g>
        <!-- 7 -->
        <g id="node8" class="node"><title>7</title>
            <ellipse fill="none" stroke="black" cx="315" cy="-90" rx="97.9212" ry="18"></ellipse>
            <text text-anchor="middle" x="315" y="-85.8" font-family="Times,serif" font-size="14.00">"Arya Stark (Female)"</text>
        </g>
        <!-- 0&#45;&gt;7 -->
        <g id="edge10" class="edge"><title>0-&gt;7</title>
            <path fill="none" stroke="black" d="M893.388,-149.276C880.641,-147.348 867.438,-145.494 855,-144 663.27,-120.971 613.714,-131.166 422,-108 413.018,-106.915 403.633,-105.637 394.315,-104.277"></path>
            <polygon fill="black" stroke="black" points="394.659,-100.79 384.252,-102.776 393.625,-107.713 394.659,-100.79"></polygon>
        </g>
        <!-- 8 -->
        <g id="node9" class="node"><title>8</title>
            <ellipse fill="none" stroke="black" cx="520" cy="-90" rx="89.2492" ry="18"></ellipse>
            <text text-anchor="middle" x="520" y="-85.8" font-family="Times,serif" font-size="14.00">"Bran Stark (Male)"</text>
        </g>
        <!-- 0&#45;&gt;8 -->
        <g id="edge2" class="edge"><title>0-&gt;8</title>
            <path fill="none" stroke="black" d="M891.263,-149.653C879.16,-147.754 866.724,-145.813 855,-144 749.71,-127.717 723.159,-125.106 618,-108 610.45,-106.772 602.579,-105.46 594.723,-104.13"></path>
            <polygon fill="black" stroke="black" points="595.253,-100.669 584.807,-102.44 594.077,-107.57 595.253,-100.669"></polygon>
        </g>
        <!-- 9 -->
        <g id="node10" class="node"><title>9</title>
            <ellipse fill="none" stroke="black" cx="725" cy="-90" rx="97.9385" ry="18"></ellipse>
            <text text-anchor="middle" x="725" y="-85.8" font-family="Times,serif" font-size="14.00">"Rickon Stark (Male)"</text>
        </g>
        <!-- 0&#45;&gt;9 -->
        <g id="edge6" class="edge"><title>0-&gt;9</title>
            <path fill="none" stroke="black" d="M913.397,-146.411C875.846,-135.366 824.123,-120.154 784.372,-108.462"></path>
            <polygon fill="black" stroke="black" points="785.12,-105.034 774.539,-105.57 783.145,-111.75 785.12,-105.034"></polygon>
        </g>
        <!-- 1 -->
        <g id="node2" class="node"><title>1</title>
            <ellipse fill="none" stroke="black" cx="1183" cy="-234" rx="100.447" ry="18"></ellipse>
            <text text-anchor="middle" x="1183" y="-229.8" font-family="Times,serif" font-size="14.00">"Rickard Stark (Male)"</text>
        </g>
        <!-- 1&#45;&gt;0 -->
        <g id="edge18" class="edge"><title>1-&gt;0</title>
            <path fill="none" stroke="black" d="M1136.07,-218.069C1102.05,-207.242 1055.86,-192.545 1019.75,-181.057"></path>
            <polygon fill="black" stroke="black" points="1020.44,-177.605 1009.85,-177.908 1018.32,-184.275 1020.44,-177.605"></polygon>
        </g>
        <!-- 2 -->
        <g id="node3" class="node"><title>2</title>
            <ellipse fill="none" stroke="black" cx="1183" cy="-162" rx="103.477" ry="18"></ellipse>
            <text text-anchor="middle" x="1183" y="-157.8" font-family="Times,serif" font-size="14.00">"Brandon Stark (Male)"</text>
        </g>
        <!-- 1&#45;&gt;2 -->
        <g id="edge16" class="edge"><title>1-&gt;2</title>
            <path fill="none" stroke="black" d="M1183,-215.697C1183,-207.983 1183,-198.712 1183,-190.112"></path>
            <polygon fill="black" stroke="black" points="1186.5,-190.104 1183,-180.104 1179.5,-190.104 1186.5,-190.104"></polygon>
        </g>
        <!-- 3 -->
        <g id="node4" class="node"><title>3</title>
            <ellipse fill="none" stroke="black" cx="1402" cy="-162" rx="97.1267" ry="18"></ellipse>
            <text text-anchor="middle" x="1402" y="-157.8" font-family="Times,serif" font-size="14.00">"Benjen Stark (Male)"</text>
        </g>
        <!-- 1&#45;&gt;3 -->
        <g id="edge14" class="edge"><title>1-&gt;3</title>
            <path fill="none" stroke="black" d="M1229.98,-217.983C1263.87,-207.151 1309.78,-192.478 1345.64,-181.014"></path>
            <polygon fill="black" stroke="black" points="1347.01,-184.25 1355.47,-177.872 1344.88,-177.582 1347.01,-184.25"></polygon>
        </g>
        <!-- 10 -->
        <g id="node11" class="node"><title>10</title>
            <ellipse fill="none" stroke="black" cx="516" cy="-162" rx="109.338" ry="18"></ellipse>
            <text text-anchor="middle" x="516" y="-157.8" font-family="Times,serif" font-size="14.00">"Catelyn Tully (Female)"</text>
        </g>
        <!-- 10&#45;&gt;5 -->
        <g id="edge24" class="edge"><title>10-&gt;5</title>
            <path fill="none" stroke="black" d="M589.748,-148.643C653.792,-137.909 749.027,-121.941 832,-108 839.854,-106.68 848.051,-105.302 856.232,-103.926"></path>
            <polygon fill="black" stroke="black" points="856.896,-107.364 866.177,-102.253 855.735,-100.461 856.896,-107.364"></polygon>
        </g>
        <!-- 10&#45;&gt;6 -->
        <g id="edge28" class="edge"><title>10-&gt;6</title>
            <path fill="none" stroke="black" d="M593.361,-149.255C606.89,-147.373 620.843,-145.54 634,-144 810.846,-123.298 856.248,-129.488 1033,-108 1042.34,-106.865 1052.1,-105.554 1061.79,-104.174"></path>
            <polygon fill="black" stroke="black" points="1062.45,-107.615 1071.84,-102.715 1061.44,-100.687 1062.45,-107.615"></polygon>
        </g>
        <!-- 10&#45;&gt;7 -->
        <g id="edge26" class="edge"><title>10-&gt;7</title>
            <path fill="none" stroke="black" d="M471.392,-145.465C440.996,-134.879 400.598,-120.81 368.475,-109.623"></path>
            <polygon fill="black" stroke="black" points="369.387,-106.235 358.792,-106.251 367.085,-112.845 369.387,-106.235"></polygon>
        </g>
        <!-- 10&#45;&gt;8 -->
        <g id="edge20" class="edge"><title>10-&gt;8</title>
            <path fill="none" stroke="black" d="M516.989,-143.697C517.43,-135.983 517.959,-126.712 518.451,-118.112"></path>
            <polygon fill="black" stroke="black" points="521.946,-118.288 519.023,-108.104 514.958,-117.888 521.946,-118.288"></polygon>
        </g>
        <!-- 10&#45;&gt;9 -->
        <g id="edge22" class="edge"><title>10-&gt;9</title>
            <path fill="none" stroke="black" d="M561.866,-145.638C593.801,-134.942 636.537,-120.629 670.257,-109.335"></path>
            <polygon fill="black" stroke="black" points="671.589,-112.58 679.96,-106.085 669.366,-105.942 671.589,-112.58"></polygon>
        </g>
        <!-- 11 -->
        <g id="node12" class="node"><title>11</title>
            <ellipse fill="none" stroke="black" cx="629" cy="-234" rx="96.5169" ry="18"></ellipse>
            <text text-anchor="middle" x="629" y="-229.8" font-family="Times,serif" font-size="14.00">"Hoster Tully (Male)"</text>
        </g>
        <!-- 11&#45;&gt;10 -->
        <g id="edge32" class="edge"><title>11-&gt;10</title>
            <path fill="none" stroke="black" d="M602.507,-216.588C587.315,-207.178 568.047,-195.242 551.553,-185.024"></path>
            <polygon fill="black" stroke="black" points="553.063,-181.842 542.719,-179.552 549.377,-187.793 553.063,-181.842"></polygon>
        </g>
        <!-- 12 -->
        <g id="node13" class="node"><title>12</title>
            <ellipse fill="none" stroke="black" cx="745" cy="-162" rx="101.261" ry="18"></ellipse>
            <text text-anchor="middle" x="745" y="-157.8" font-family="Times,serif" font-size="14.00">"Edmure Tully (Male)"</text>
        </g>
        <!-- 11&#45;&gt;12 -->
        <g id="edge30" class="edge"><title>11-&gt;12</title>
            <path fill="none" stroke="black" d="M656.197,-216.588C671.936,-207.091 691.938,-195.02 708.972,-184.741"></path>
            <polygon fill="black" stroke="black" points="710.818,-187.715 717.572,-179.552 707.201,-181.722 710.818,-187.715"></polygon>
        </g>
        <!-- 13 -->
        <g id="node14" class="node"><title>13</title>
            <ellipse fill="none" stroke="black" cx="99" cy="-162" rx="97.9371" ry="18"></ellipse>
            <text text-anchor="middle" x="99" y="-157.8" font-family="Times,serif" font-size="14.00">"Lysa Tully (Female)"</text>
        </g>
        <!-- 11&#45;&gt;13 -->
        <g id="edge34" class="edge"><title>11-&gt;13</title>
            <path fill="none" stroke="black" d="M559.79,-221.434C547.548,-219.522 534.91,-217.633 523,-216 382.957,-196.803 347.071,-198.994 207,-180 198.091,-178.792 188.781,-177.449 179.524,-176.062"></path>
            <polygon fill="black" stroke="black" points="179.933,-172.584 169.521,-174.545 178.883,-179.505 179.933,-172.584"></polygon>
        </g>
        <!-- 15 -->
        <g id="node16" class="node"><title>15</title>
            <ellipse fill="none" stroke="black" cx="99" cy="-90" rx="99.0316" ry="18"></ellipse>
            <text text-anchor="middle" x="99" y="-85.8" font-family="Times,serif" font-size="14.00">"Robert Arryn (Male)"</text>
        </g>
        <!-- 13&#45;&gt;15 -->
        <g id="edge36" class="edge"><title>13-&gt;15</title>
            <path fill="none" stroke="black" d="M99,-143.697C99,-135.983 99,-126.712 99,-118.112"></path>
            <polygon fill="black" stroke="black" points="102.5,-118.104 99,-108.104 95.5001,-118.104 102.5,-118.104"></polygon>
        </g>
        <!-- 14 -->
        <g id="node15" class="node"><title>14</title>
            <ellipse fill="none" stroke="black" cx="403" cy="-234" rx="111.243" ry="18"></ellipse>
            <text text-anchor="middle" x="403" y="-229.8" font-family="Times,serif" font-size="14.00">"Minisa Whent (Female)"</text>
        </g>
        <!-- 14&#45;&gt;10 -->
        <g id="edge40" class="edge"><title>14-&gt;10</title>
            <path fill="none" stroke="black" d="M429.779,-216.411C444.978,-206.996 464.188,-195.096 480.616,-184.92"></path>
            <polygon fill="black" stroke="black" points="482.755,-187.711 489.413,-179.47 479.069,-181.761 482.755,-187.711"></polygon>
        </g>
        <!-- 14&#45;&gt;12 -->
        <g id="edge38" class="edge"><title>14-&gt;12</title>
            <path fill="none" stroke="black" d="M468.941,-219.503C526.951,-207.63 611.299,-190.366 671.471,-178.05"></path>
            <polygon fill="black" stroke="black" points="672.191,-181.475 681.286,-176.041 670.788,-174.617 672.191,-181.475"></polygon>
        </g>
        <!-- 14&#45;&gt;13 -->
        <g id="edge42" class="edge"><title>14-&gt;13</title>
            <path fill="none" stroke="black" d="M341.847,-218.919C291.352,-207.292 219.729,-190.799 167.352,-178.739"></path>
            <polygon fill="black" stroke="black" points="168.005,-175.298 157.475,-176.465 166.435,-182.119 168.005,-175.298"></polygon>
        </g>
        <!-- 16 -->
        <g id="node17" class="node"><title>16</title>
            <ellipse fill="none" stroke="black" cx="302" cy="-162" rx="86.2265" ry="18"></ellipse>
            <text text-anchor="middle" x="302" y="-157.8" font-family="Times,serif" font-size="14.00">"Jon Arryn (Male)"</text>
        </g>
        <!-- 16&#45;&gt;15 -->
        <g id="edge44" class="edge"><title>16-&gt;15</title>
            <path fill="none" stroke="black" d="M259.445,-146.326C228.44,-135.635 186.207,-121.071 152.853,-109.57"></path>
            <polygon fill="black" stroke="black" points="153.849,-106.211 143.254,-106.26 151.567,-112.829 153.849,-106.211"></polygon>
        </g>
        <!-- 17 -->
        <g id="node18" class="node"><title>17</title>
            <ellipse fill="none" stroke="black" cx="2792" cy="-162" rx="111.539" ry="18"></ellipse>
            <text text-anchor="middle" x="2792" y="-157.8" font-family="Times,serif" font-size="14.00">"Tywin Lannister (Male)"</text>
        </g>
        <!-- 20 -->
        <g id="node21" class="node"><title>20</title>
            <ellipse fill="none" stroke="black" cx="2561" cy="-90" rx="119.598" ry="18"></ellipse>
            <text text-anchor="middle" x="2561" y="-85.8" font-family="Times,serif" font-size="14.00">"Cersei Lannister (Female)"</text>
        </g>
        <!-- 17&#45;&gt;20 -->
        <g id="edge50" class="edge"><title>17-&gt;20</title>
            <path fill="none" stroke="black" d="M2742.16,-145.897C2706.73,-135.161 2658.96,-120.684 2621.37,-109.292"></path>
            <polygon fill="black" stroke="black" points="2622.13,-105.868 2611.55,-106.317 2620.1,-112.567 2622.13,-105.868"></polygon>
        </g>
        <!-- 21 -->
        <g id="node22" class="node"><title>21</title>
            <ellipse fill="none" stroke="black" cx="2808" cy="-90" rx="109.009" ry="18"></ellipse>
            <text text-anchor="middle" x="2808" y="-85.8" font-family="Times,serif" font-size="14.00">"Jamie Lannister (Male)"</text>
        </g>
        <!-- 17&#45;&gt;21 -->
        <g id="edge46" class="edge"><title>17-&gt;21</title>
            <path fill="none" stroke="black" d="M2795.96,-143.697C2797.72,-135.983 2799.84,-126.712 2801.8,-118.112"></path>
            <polygon fill="black" stroke="black" points="2805.27,-118.633 2804.09,-108.104 2798.45,-117.073 2805.27,-118.633"></polygon>
        </g>
        <!-- 22 -->
        <g id="node23" class="node"><title>22</title>
            <ellipse fill="none" stroke="black" cx="3048" cy="-90" rx="112.148" ry="18"></ellipse>
            <text text-anchor="middle" x="3048" y="-85.8" font-family="Times,serif" font-size="14.00">"Tyrion Lannister (Male)"</text>
        </g>
        <!-- 17&#45;&gt;22 -->
        <g id="edge48" class="edge"><title>17-&gt;22</title>
            <path fill="none" stroke="black" d="M2845.98,-146.24C2886.26,-135.225 2941.45,-120.135 2983.96,-108.51"></path>
            <polygon fill="black" stroke="black" points="2984.93,-111.874 2993.66,-105.86 2983.09,-105.121 2984.93,-111.874"></polygon>
        </g>
        <!-- 18 -->
        <g id="node19" class="node"><title>18</title>
            <ellipse fill="none" stroke="black" cx="3044" cy="-234" rx="108.216" ry="18"></ellipse>
            <text text-anchor="middle" x="3044" y="-229.8" font-family="Times,serif" font-size="14.00">"Tytos Lannister (Male)"</text>
        </g>
        <!-- 18&#45;&gt;17 -->
        <g id="edge54" class="edge"><title>18-&gt;17</title>
            <path fill="none" stroke="black" d="M2990.87,-218.24C2951.29,-207.248 2897.12,-192.199 2855.3,-180.583"></path>
            <polygon fill="black" stroke="black" points="2856.07,-177.164 2845.5,-177.86 2854.19,-183.909 2856.07,-177.164"></polygon>
        </g>
        <!-- 19 -->
        <g id="node20" class="node"><title>19</title>
            <ellipse fill="none" stroke="black" cx="3296" cy="-162" rx="111.524" ry="18"></ellipse>
            <text text-anchor="middle" x="3296" y="-157.8" font-family="Times,serif" font-size="14.00">"Kevan Lannister (Male)"</text>
        </g>
        <!-- 18&#45;&gt;19 -->
        <g id="edge52" class="edge"><title>18-&gt;19</title>
            <path fill="none" stroke="black" d="M3097.13,-218.24C3136.71,-207.248 3190.88,-192.199 3232.7,-180.583"></path>
            <polygon fill="black" stroke="black" points="3233.81,-183.909 3242.5,-177.86 3231.93,-177.164 3233.81,-183.909"></polygon>
        </g>
        <!-- 24 -->
        <g id="node25" class="node"><title>24</title>
            <ellipse fill="none" stroke="black" cx="3296" cy="-90" rx="112.131" ry="18"></ellipse>
            <text text-anchor="middle" x="3296" y="-85.8" font-family="Times,serif" font-size="14.00">"Lancel Lannister (Male)"</text>
        </g>
        <!-- 19&#45;&gt;24 -->
        <g id="edge56" class="edge"><title>19-&gt;24</title>
            <path fill="none" stroke="black" d="M3296,-143.697C3296,-135.983 3296,-126.712 3296,-118.112"></path>
            <polygon fill="black" stroke="black" points="3299.5,-118.104 3296,-108.104 3292.5,-118.104 3299.5,-118.104"></polygon>
        </g>
        <!-- 25 -->
        <g id="node26" class="node"><title>25</title>
            <ellipse fill="none" stroke="black" cx="2237" cy="-18" rx="117.063" ry="18"></ellipse>
            <text text-anchor="middle" x="2237" y="-13.8" font-family="Times,serif" font-size="14.00">"Joffrey Baratheon (Male)"</text>
        </g>
        <!-- 20&#45;&gt;25 -->
        <g id="edge58" class="edge"><title>20-&gt;25</title>
            <path fill="none" stroke="black" d="M2495.82,-74.9187C2442.57,-63.4127 2367.26,-47.1426 2311.6,-35.1172"></path>
            <polygon fill="black" stroke="black" points="2312.31,-31.6898 2301.8,-32.999 2310.83,-38.5319 2312.31,-31.6898"></polygon>
        </g>
        <!-- 26 -->
        <g id="node27" class="node"><title>26</title>
            <ellipse fill="none" stroke="black" cx="2505" cy="-18" rx="133.204" ry="18"></ellipse>
            <text text-anchor="middle" x="2505" y="-13.8" font-family="Times,serif" font-size="14.00">"Myrcella Baratheon (Female)"</text>
        </g>
        <!-- 20&#45;&gt;26 -->
        <g id="edge62" class="edge"><title>20-&gt;26</title>
            <path fill="none" stroke="black" d="M2547.44,-72.055C2540.73,-63.6679 2532.5,-53.376 2525.08,-44.0963"></path>
            <polygon fill="black" stroke="black" points="2527.8,-41.8976 2518.82,-36.2753 2522.33,-46.2705 2527.8,-41.8976"></polygon>
        </g>
        <!-- 27 -->
        <g id="node28" class="node"><title>27</title>
            <ellipse fill="none" stroke="black" cx="2781" cy="-18" rx="124.348" ry="18"></ellipse>
            <text text-anchor="middle" x="2781" y="-13.8" font-family="Times,serif" font-size="14.00">"Tommen Baratheon (Male)"</text>
        </g>
        <!-- 20&#45;&gt;27 -->
        <g id="edge60" class="edge"><title>20-&gt;27</title>
            <path fill="none" stroke="black" d="M2609.55,-73.5515C2642.75,-62.9893 2686.94,-48.9294 2722.14,-37.729"></path>
            <polygon fill="black" stroke="black" points="2723.34,-41.0183 2731.81,-34.651 2721.22,-34.3478 2723.34,-41.0183"></polygon>
        </g>
        <!-- 23 -->
        <g id="node24" class="node"><title>23</title>
            <ellipse fill="none" stroke="black" cx="3044" cy="-162" rx="121.319" ry="18"></ellipse>
            <text text-anchor="middle" x="3044" y="-157.8" font-family="Times,serif" font-size="14.00">"Joanna Lannister (Female)"</text>
        </g>
        <!-- 23&#45;&gt;20 -->
        <g id="edge68" class="edge"><title>23-&gt;20</title>
            <path fill="none" stroke="black" d="M2960.42,-148.887C2875.02,-136.509 2742.69,-117.332 2654.01,-104.48"></path>
            <polygon fill="black" stroke="black" points="2654.36,-100.994 2643.96,-103.023 2653.36,-107.922 2654.36,-100.994"></polygon>
        </g>
        <!-- 23&#45;&gt;21 -->
        <g id="edge64" class="edge"><title>23-&gt;21</title>
            <path fill="none" stroke="black" d="M2992.21,-145.638C2955.71,-134.814 2906.73,-120.284 2868.44,-108.929"></path>
            <polygon fill="black" stroke="black" points="2869.04,-105.454 2858.45,-105.965 2867.05,-112.165 2869.04,-105.454"></polygon>
        </g>
        <!-- 23&#45;&gt;22 -->
        <g id="edge66" class="edge"><title>23-&gt;22</title>
            <path fill="none" stroke="black" d="M3044.99,-143.697C3045.43,-135.983 3045.96,-126.712 3046.45,-118.112"></path>
            <polygon fill="black" stroke="black" points="3049.95,-118.288 3047.02,-108.104 3042.96,-117.888 3049.95,-118.288"></polygon>
        </g>
        <!-- 28 -->
        <g id="node29" class="node"><title>28</title>
            <ellipse fill="none" stroke="black" cx="2307" cy="-90" rx="115.471" ry="18"></ellipse>
            <text text-anchor="middle" x="2307" y="-85.8" font-family="Times,serif" font-size="14.00">"Robert Baratheon (Male)"</text>
        </g>
        <!-- 28&#45;&gt;25 -->
        <g id="edge70" class="edge"><title>28-&gt;25</title>
            <path fill="none" stroke="black" d="M2290.05,-72.055C2281.5,-63.4984 2270.96,-52.9594 2261.54,-43.5352"></path>
            <polygon fill="black" stroke="black" points="2263.82,-40.8715 2254.28,-36.2753 2258.87,-45.8213 2263.82,-40.8715"></polygon>
        </g>
        <!-- 28&#45;&gt;26 -->
        <g id="edge74" class="edge"><title>28-&gt;26</title>
            <path fill="none" stroke="black" d="M2351.44,-73.2906C2380.55,-62.9971 2418.82,-49.4663 2449.88,-38.488"></path>
            <polygon fill="black" stroke="black" points="2451.42,-41.6538 2459.68,-35.0207 2449.09,-35.0541 2451.42,-41.6538"></polygon>
        </g>
        <!-- 28&#45;&gt;27 -->
        <g id="edge72" class="edge"><title>28-&gt;27</title>
            <path fill="none" stroke="black" d="M2387.68,-77.0858C2470.63,-64.835 2599.71,-45.7726 2687.18,-32.8557"></path>
            <polygon fill="black" stroke="black" points="2687.72,-36.3139 2697.1,-31.3904 2686.7,-29.389 2687.72,-36.3139"></polygon>
        </g>
        <!-- 29 -->
        <g id="node30" class="node"><title>29</title>
            <ellipse fill="none" stroke="black" cx="2055" cy="-162" rx="118.185" ry="18"></ellipse>
            <text text-anchor="middle" x="2055" y="-157.8" font-family="Times,serif" font-size="14.00">"Steffon Baratheon (Male)"</text>
        </g>
        <!-- 29&#45;&gt;28 -->
        <g id="edge78" class="edge"><title>29-&gt;28</title>
            <path fill="none" stroke="black" d="M2109.06,-145.983C2148.42,-135.049 2201.87,-120.202 2243.31,-108.692"></path>
            <polygon fill="black" stroke="black" points="2244.33,-112.041 2253.03,-105.992 2242.46,-105.296 2244.33,-112.041"></polygon>
        </g>
        <!-- 30 -->
        <g id="node31" class="node"><title>30</title>
            <ellipse fill="none" stroke="black" cx="2055" cy="-90" rx="118.2" ry="18"></ellipse>
            <text text-anchor="middle" x="2055" y="-85.8" font-family="Times,serif" font-size="14.00">"Stannis Baratheon (Male)"</text>
        </g>
        <!-- 29&#45;&gt;30 -->
        <g id="edge80" class="edge"><title>29-&gt;30</title>
            <path fill="none" stroke="black" d="M2055,-143.697C2055,-135.983 2055,-126.712 2055,-118.112"></path>
            <polygon fill="black" stroke="black" points="2058.5,-118.104 2055,-108.104 2051.5,-118.104 2058.5,-118.104"></polygon>
        </g>
        <!-- 31 -->
        <g id="node32" class="node"><title>31</title>
            <ellipse fill="none" stroke="black" cx="1565" cy="-90" rx="112.15" ry="18"></ellipse>
            <text text-anchor="middle" x="1565" y="-85.8" font-family="Times,serif" font-size="14.00">"Renly Baratheon (Male)"</text>
        </g>
        <!-- 29&#45;&gt;31 -->
        <g id="edge76" class="edge"><title>29-&gt;31</title>
            <path fill="none" stroke="black" d="M1972.16,-149.165C1884.43,-136.633 1746.37,-116.91 1655.76,-103.965"></path>
            <polygon fill="black" stroke="black" points="1656.17,-100.488 1645.77,-102.539 1655.18,-107.418 1656.17,-100.488"></polygon>
        </g>
        <!-- 32 -->
        <g id="node33" class="node"><title>32</title>
            <ellipse fill="none" stroke="black" cx="1863" cy="-18" rx="127.169" ry="18"></ellipse>
            <text text-anchor="middle" x="1863" y="-13.8" font-family="Times,serif" font-size="14.00">"Shireen Baratheon (Female)"</text>
        </g>
        <!-- 30&#45;&gt;32 -->
        <g id="edge82" class="edge"><title>30-&gt;32</title>
            <path fill="none" stroke="black" d="M2011.43,-73.1159C1983.18,-62.8151 1946.18,-49.3277 1916.2,-38.3948"></path>
            <polygon fill="black" stroke="black" points="1917.32,-35.0793 1906.73,-34.9422 1914.92,-41.6559 1917.32,-35.0793"></polygon>
        </g>
        <!-- 33 -->
        <g id="node34" class="node"><title>33</title>
            <ellipse fill="none" stroke="black" cx="1807" cy="-90" rx="111.55" ry="18"></ellipse>
            <text text-anchor="middle" x="1807" y="-85.8" font-family="Times,serif" font-size="14.00">"Selyse Florent (Female)"</text>
        </g>
        <!-- 33&#45;&gt;32 -->
        <g id="edge84" class="edge"><title>33-&gt;32</title>
            <path fill="none" stroke="black" d="M1820.56,-72.055C1827.27,-63.6679 1835.5,-53.376 1842.92,-44.0963"></path>
            <polygon fill="black" stroke="black" points="1845.67,-46.2705 1849.18,-36.2753 1840.2,-41.8976 1845.67,-46.2705"></polygon>
        </g>
        <!-- 34 -->
        <g id="node35" class="node"><title>34</title>
            <ellipse fill="none" stroke="black" cx="3857" cy="-162" rx="112.618" ry="18"></ellipse>
            <text text-anchor="middle" x="3857" y="-157.8" font-family="Times,serif" font-size="14.00">"Aerys Targaryen (Male)"</text>
        </g>
        <!-- 37 -->
        <g id="node38" class="node"><title>37</title>
            <ellipse fill="none" stroke="black" cx="4059" cy="-90" rx="121.292" ry="18"></ellipse>
            <text text-anchor="middle" x="4059" y="-85.8" font-family="Times,serif" font-size="14.00">"Rhaegar Targaryen (Male)"</text>
        </g>
        <!-- 34&#45;&gt;37 -->
        <g id="edge86" class="edge"><title>34-&gt;37</title>
            <path fill="none" stroke="black" d="M3901.83,-145.465C3931.96,-135.025 3971.86,-121.198 4003.92,-110.088"></path>
            <polygon fill="black" stroke="black" points="4005.29,-113.315 4013.6,-106.734 4003,-106.701 4005.29,-113.315"></polygon>
        </g>
        <!-- 38 -->
        <g id="node39" class="node"><title>38</title>
            <ellipse fill="none" stroke="black" cx="4318" cy="-90" rx="119.277" ry="18"></ellipse>
            <text text-anchor="middle" x="4318" y="-85.8" font-family="Times,serif" font-size="14.00">"Viserys Targaryen (Male)"</text>
        </g>
        <!-- 34&#45;&gt;38 -->
        <g id="edge88" class="edge"><title>34-&gt;38</title>
            <path fill="none" stroke="black" d="M3935.46,-149.086C4016.31,-136.81 4142.2,-117.694 4227.27,-104.776"></path>
            <polygon fill="black" stroke="black" points="4227.82,-108.233 4237.18,-103.272 4226.77,-101.313 4227.82,-108.233"></polygon>
        </g>
        <!-- 39 -->
        <g id="node40" class="node"><title>39</title>
            <ellipse fill="none" stroke="black" cx="3784" cy="-90" rx="134.595" ry="18"></ellipse>
            <text text-anchor="middle" x="3784" y="-85.8" font-family="Times,serif" font-size="14.00">"Daenerys Targaryen (Female)"</text>
        </g>
        <!-- 34&#45;&gt;39 -->
        <g id="edge90" class="edge"><title>34-&gt;39</title>
            <path fill="none" stroke="black" d="M3839.33,-144.055C3830.25,-135.349 3819.03,-124.591 3809.07,-115.043"></path>
            <polygon fill="black" stroke="black" points="3811.4,-112.427 3801.76,-108.032 3806.56,-117.479 3811.4,-112.427"></polygon>
        </g>
        <!-- 35 -->
        <g id="node36" class="node"><title>35</title>
            <ellipse fill="none" stroke="black" cx="3986" cy="-234" rx="127.328" ry="18"></ellipse>
            <text text-anchor="middle" x="3986" y="-229.8" font-family="Times,serif" font-size="14.00">"Jaehaerys Targaryen (Male)"</text>
        </g>
        <!-- 35&#45;&gt;34 -->
        <g id="edge92" class="edge"><title>35-&gt;34</title>
            <path fill="none" stroke="black" d="M3955.43,-216.411C3937.76,-206.822 3915.33,-194.655 3896.36,-184.356"></path>
            <polygon fill="black" stroke="black" points="3897.81,-181.163 3887.35,-179.47 3894.47,-187.316 3897.81,-181.163"></polygon>
        </g>
        <!-- 36 -->
        <g id="node37" class="node"><title>36</title>
            <ellipse fill="none" stroke="black" cx="4116" cy="-162" rx="127.153" ry="18"></ellipse>
            <text text-anchor="middle" x="4116" y="-157.8" font-family="Times,serif" font-size="14.00">"Rhaella Targaryen (Female)"</text>
        </g>
        <!-- 35&#45;&gt;36 -->
        <g id="edge94" class="edge"><title>35-&gt;36</title>
            <path fill="none" stroke="black" d="M4016.81,-216.411C4034.49,-206.891 4056.89,-194.831 4075.92,-184.58"></path>
            <polygon fill="black" stroke="black" points="4077.82,-187.535 4084.96,-179.713 4074.5,-181.372 4077.82,-187.535"></polygon>
        </g>
        <!-- 36&#45;&gt;37 -->
        <g id="edge96" class="edge"><title>36-&gt;37</title>
            <path fill="none" stroke="black" d="M4102.2,-144.055C4095.37,-135.668 4086.99,-125.376 4079.44,-116.096"></path>
            <polygon fill="black" stroke="black" points="4082.1,-113.82 4073.07,-108.275 4076.67,-118.24 4082.1,-113.82"></polygon>
        </g>
        <!-- 36&#45;&gt;38 -->
        <g id="edge98" class="edge"><title>36-&gt;38</title>
            <path fill="none" stroke="black" d="M4161.84,-145.116C4191.9,-134.697 4231.37,-121.019 4263.11,-110.021"></path>
            <polygon fill="black" stroke="black" points="4264.39,-113.282 4272.69,-106.701 4262.1,-106.668 4264.39,-113.282"></polygon>
        </g>
        <!-- 36&#45;&gt;39 -->
        <g id="edge100" class="edge"><title>36-&gt;39</title>
            <path fill="none" stroke="black" d="M4048.01,-146.666C3994.24,-135.327 3919.07,-119.479 3862.69,-107.592"></path>
            <polygon fill="black" stroke="black" points="3863.26,-104.134 3852.75,-105.496 3861.81,-110.983 3863.26,-104.134"></polygon>
        </g>
        <!-- 40 -->
        <g id="node41" class="node"><title>40</title>
            <ellipse fill="none" stroke="black" cx="3595" cy="-18" rx="131.289" ry="18"></ellipse>
            <text text-anchor="middle" x="3595" y="-13.8" font-family="Times,serif" font-size="14.00">"Rhaenys Targaryen (Female)"</text>
        </g>
        <!-- 37&#45;&gt;40 -->
        <g id="edge104" class="edge"><title>37-&gt;40</title>
            <path fill="none" stroke="black" d="M3977.11,-76.6465C3896.86,-64.5397 3774.62,-46.0972 3690.1,-33.3474"></path>
            <polygon fill="black" stroke="black" points="3690.4,-29.8526 3679.99,-31.8216 3689.35,-36.7742 3690.4,-29.8526"></polygon>
        </g>
        <!-- 41 -->
        <g id="node42" class="node"><title>41</title>
            <ellipse fill="none" stroke="black" cx="3992" cy="-18" rx="115.148" ry="18"></ellipse>
            <text text-anchor="middle" x="3992" y="-13.8" font-family="Times,serif" font-size="14.00">"Aegon Targaryen (Male)"</text>
        </g>
        <!-- 37&#45;&gt;41 -->
        <g id="edge102" class="edge"><title>37-&gt;41</title>
            <path fill="none" stroke="black" d="M4042.78,-72.055C4034.59,-63.4984 4024.5,-52.9594 4015.48,-43.5352"></path>
            <polygon fill="black" stroke="black" points="4017.98,-41.0794 4008.53,-36.2753 4012.92,-45.9196 4017.98,-41.0794"></polygon>
        </g>
        <!-- 42 -->
        <g id="node43" class="node"><title>42</title>
            <ellipse fill="none" stroke="black" cx="3529" cy="-90" rx="102.36" ry="18"></ellipse>
            <text text-anchor="middle" x="3529" y="-85.8" font-family="Times,serif" font-size="14.00">"Elia Martell (Female)"</text>
        </g>
        <!-- 42&#45;&gt;40 -->
        <g id="edge108" class="edge"><title>42-&gt;40</title>
            <path fill="none" stroke="black" d="M3544.98,-72.055C3552.96,-63.5832 3562.78,-53.1679 3571.6,-43.8154"></path>
            <polygon fill="black" stroke="black" points="3574.4,-45.9523 3578.71,-36.2753 3569.31,-41.1502 3574.4,-45.9523"></polygon>
        </g>
        <!-- 42&#45;&gt;41 -->
        <g id="edge106" class="edge"><title>42-&gt;41</title>
            <path fill="none" stroke="black" d="M3603.33,-77.5893C3615.58,-75.7165 3628.15,-73.8001 3640,-72 3728.95,-58.4913 3830.58,-43.2058 3901.69,-32.5336"></path>
            <polygon fill="black" stroke="black" points="3902.59,-35.9385 3911.96,-30.9933 3901.55,-29.016 3902.59,-35.9385"></polygon>
        </g>
        <!-- 43 -->
        <g id="node44" class="node"><title>43</title>
            <ellipse fill="none" stroke="black" cx="5209" cy="-162" rx="104.585" ry="18"></ellipse>
            <text text-anchor="middle" x="5209" y="-157.8" font-family="Times,serif" font-size="14.00">"Balon Greyjoy (Male)"</text>
        </g>
        <!-- 49 -->
        <g id="node50" class="node"><title>49</title>
            <ellipse fill="none" stroke="black" cx="5118" cy="-90" rx="108.22" ry="18"></ellipse>
            <text text-anchor="middle" x="5118" y="-85.8" font-family="Times,serif" font-size="14.00">"Rodrik Greyjoy (Male)"</text>
        </g>
        <!-- 43&#45;&gt;49 -->
        <g id="edge112" class="edge"><title>43-&gt;49</title>
            <path fill="none" stroke="black" d="M5186.97,-144.055C5175.23,-135.027 5160.63,-123.792 5147.88,-113.987"></path>
            <polygon fill="black" stroke="black" points="5149.89,-111.112 5139.83,-107.789 5145.62,-116.66 5149.89,-111.112"></polygon>
        </g>
        <!-- 50 -->
        <g id="node51" class="node"><title>50</title>
            <ellipse fill="none" stroke="black" cx="5352" cy="-90" rx="107.098" ry="18"></ellipse>
            <text text-anchor="middle" x="5352" y="-85.8" font-family="Times,serif" font-size="14.00">"Maron Greyjoy (Male)"</text>
        </g>
        <!-- 43&#45;&gt;50 -->
        <g id="edge110" class="edge"><title>43-&gt;50</title>
            <path fill="none" stroke="black" d="M5242.17,-144.765C5262.29,-134.914 5288.17,-122.247 5309.75,-111.683"></path>
            <polygon fill="black" stroke="black" points="5311.57,-114.688 5319.01,-107.147 5308.49,-108.4 5311.57,-114.688"></polygon>
        </g>
        <!-- 51 -->
        <g id="node52" class="node"><title>51</title>
            <ellipse fill="none" stroke="black" cx="4651" cy="-90" rx="110.122" ry="18"></ellipse>
            <text text-anchor="middle" x="4651" y="-85.8" font-family="Times,serif" font-size="14.00">"Asha Greyjoy (Female)"</text>
        </g>
        <!-- 43&#45;&gt;51 -->
        <g id="edge116" class="edge"><title>43-&gt;51</title>
            <path fill="none" stroke="black" d="M5133.89,-149.499C5120.61,-147.579 5106.91,-145.671 5094,-144 4950.31,-125.403 4913.73,-126.247 4770,-108 4760.22,-106.758 4749.99,-105.396 4739.82,-103.999"></path>
            <polygon fill="black" stroke="black" points="4740.07,-100.501 4729.69,-102.595 4739.11,-107.434 4740.07,-100.501"></polygon>
        </g>
        <!-- 52 -->
        <g id="node53" class="node"><title>52</title>
            <ellipse fill="none" stroke="black" cx="4885" cy="-90" rx="105.992" ry="18"></ellipse>
            <text text-anchor="middle" x="4885" y="-85.8" font-family="Times,serif" font-size="14.00">"Theon Greyjoy (Male)"</text>
        </g>
        <!-- 43&#45;&gt;52 -->
        <g id="edge114" class="edge"><title>43-&gt;52</title>
            <path fill="none" stroke="black" d="M5146.53,-147.503C5092.58,-135.847 5014.59,-118.997 4957.82,-106.732"></path>
            <polygon fill="black" stroke="black" points="4958.34,-103.265 4947.83,-104.575 4956.87,-110.107 4958.34,-103.265"></polygon>
        </g>
        <!-- 44 -->
        <g id="node45" class="node"><title>44</title>
            <ellipse fill="none" stroke="black" cx="5209" cy="-234" rx="112.151" ry="18"></ellipse>
            <text text-anchor="middle" x="5209" y="-229.8" font-family="Times,serif" font-size="14.00">"Quellon Greyjoy (Male)"</text>
        </g>
        <!-- 44&#45;&gt;43 -->
        <g id="edge120" class="edge"><title>44-&gt;43</title>
            <path fill="none" stroke="black" d="M5209,-215.697C5209,-207.983 5209,-198.712 5209,-190.112"></path>
            <polygon fill="black" stroke="black" points="5212.5,-190.104 5209,-180.104 5205.5,-190.104 5212.5,-190.104"></polygon>
        </g>
        <!-- 45 -->
        <g id="node46" class="node"><title>45</title>
            <ellipse fill="none" stroke="black" cx="5437" cy="-162" rx="104.884" ry="18"></ellipse>
            <text text-anchor="middle" x="5437" y="-157.8" font-family="Times,serif" font-size="14.00">"Euron Greyjoy (Male)"</text>
        </g>
        <!-- 44&#45;&gt;45 -->
        <g id="edge122" class="edge"><title>44-&gt;45</title>
            <path fill="none" stroke="black" d="M5258.47,-217.811C5293.7,-206.996 5341.18,-192.418 5378.32,-181.015"></path>
            <polygon fill="black" stroke="black" points="5379.48,-184.32 5388.02,-178.039 5377.43,-177.628 5379.48,-184.32"></polygon>
        </g>
        <!-- 46 -->
        <g id="node47" class="node"><title>46</title>
            <ellipse fill="none" stroke="black" cx="5678" cy="-162" rx="118.185" ry="18"></ellipse>
            <text text-anchor="middle" x="5678" y="-157.8" font-family="Times,serif" font-size="14.00">"Victarion Greyjoy (Male)"</text>
        </g>
        <!-- 44&#45;&gt;46 -->
        <g id="edge126" class="edge"><title>44-&gt;46</title>
            <path fill="none" stroke="black" d="M5288.29,-221.165C5370.83,-208.846 5499.93,-189.578 5586.67,-176.631"></path>
            <polygon fill="black" stroke="black" points="5587.4,-180.061 5596.77,-175.123 5586.37,-173.138 5587.4,-180.061"></polygon>
        </g>
        <!-- 47 -->
        <g id="node48" class="node"><title>47</title>
            <ellipse fill="none" stroke="black" cx="4488" cy="-162" rx="112.339" ry="18"></ellipse>
            <text text-anchor="middle" x="4488" y="-157.8" font-family="Times,serif" font-size="14.00">"Urrigon Greyjoy (Male)"</text>
        </g>
        <!-- 44&#45;&gt;47 -->
        <g id="edge124" class="edge"><title>44-&gt;47</title>
            <path fill="none" stroke="black" d="M5109.05,-225.753C4989.83,-216.743 4784.58,-200.076 4609,-180 4598.78,-178.831 4588.09,-177.495 4577.47,-176.097"></path>
            <polygon fill="black" stroke="black" points="4577.71,-172.598 4567.33,-174.741 4576.78,-179.536 4577.71,-172.598"></polygon>
        </g>
        <!-- 48 -->
        <g id="node49" class="node"><title>48</title>
            <ellipse fill="none" stroke="black" cx="4980" cy="-162" rx="105.18" ry="18"></ellipse>
            <text text-anchor="middle" x="4980" y="-157.8" font-family="Times,serif" font-size="14.00">"Aeron Greyjoy (Male)"</text>
        </g>
        <!-- 44&#45;&gt;48 -->
        <g id="edge118" class="edge"><title>44-&gt;48</title>
            <path fill="none" stroke="black" d="M5159.31,-217.811C5123.93,-206.996 5076.24,-192.418 5038.93,-181.015"></path>
            <polygon fill="black" stroke="black" points="5039.79,-177.615 5029.2,-178.039 5037.74,-184.309 5039.79,-177.615"></polygon>
        </g>
        <!-- 53 -->
        <g id="node54" class="node"><title>53</title>
            <ellipse fill="none" stroke="black" cx="4737" cy="-162" rx="119.292" ry="18"></ellipse>
            <text text-anchor="middle" x="4737" y="-157.8" font-family="Times,serif" font-size="14.00">"Alannys Harlaw (Female)"</text>
        </g>
        <!-- 53&#45;&gt;49 -->
        <g id="edge130" class="edge"><title>53-&gt;49</title>
            <path fill="none" stroke="black" d="M4809.56,-147.669C4874.87,-135.67 4970.66,-118.071 5038.12,-105.675"></path>
            <polygon fill="black" stroke="black" points="5039.08,-109.059 5048.28,-103.809 5037.81,-102.174 5039.08,-109.059"></polygon>
        </g>
        <!-- 53&#45;&gt;50 -->
        <g id="edge128" class="edge"><title>53-&gt;50</title>
            <path fill="none" stroke="black" d="M4821.64,-149.334C4836.09,-147.463 4850.97,-145.614 4865,-144 5029.14,-125.121 5070.98,-127.884 5235,-108 5244.86,-106.805 5255.17,-105.455 5265.41,-104.05"></path>
            <polygon fill="black" stroke="black" points="5266.18,-107.476 5275.6,-102.632 5265.22,-100.543 5266.18,-107.476"></polygon>
        </g>
        <!-- 53&#45;&gt;51 -->
        <g id="edge134" class="edge"><title>53-&gt;51</title>
            <path fill="none" stroke="black" d="M4716.18,-144.055C4705.2,-135.113 4691.55,-124.005 4679.59,-114.268"></path>
            <polygon fill="black" stroke="black" points="4681.59,-111.387 4671.63,-107.789 4677.17,-116.816 4681.59,-111.387"></polygon>
        </g>
        <!-- 53&#45;&gt;52 -->
        <g id="edge132" class="edge"><title>53-&gt;52</title>
            <path fill="none" stroke="black" d="M4771.7,-144.588C4792.63,-134.688 4819.47,-121.992 4841.78,-111.443"></path>
            <polygon fill="black" stroke="black" points="4843.49,-114.507 4851.03,-107.068 4840.49,-108.179 4843.49,-114.507"></polygon>
        </g>
    </g>
</svg>